<svg xmlns="http://www.w3.org/2000/svg" viewBox="0 0 500 500" width="500" height="500">
  <style>
    @media (prefers-color-scheme: dark) {
      g { filter: invert(1); }
    }
  </style>

  <g transform="translate(0,500) scale(0.1,-0.1)" fill="white" stroke="none">
<path d="M134 4822 c-5 -4 -32 -42 -60 -86 -27 -43 -55 -81 -62 -83 -9 -4 -12
-158 -12 -725 0 -653 1 -720 16 -714 9 3 24 6 34 6 11 0 34 13 52 29 18 15 44
32 58 36 14 4 30 11 35 16 6 4 49 7 97 6 47 -1 90 1 94 6 4 4 3 24 -2 45 l-9
37 -89 3 c-69 2 -94 7 -113 22 -21 17 -22 20 -7 34 17 18 70 21 106 7 13 -5
45 -7 71 -4 40 5 48 9 54 31 3 13 1 47 -6 75 -6 27 -14 104 -17 171 -4 67 -12
135 -19 151 -7 17 -19 68 -25 115 -7 47 -16 93 -21 102 -5 10 -9 29 -9 43 0
13 -10 43 -22 66 -26 50 -42 240 -35 405 3 74 1 105 -9 118 -7 11 -11 23 -8
28 4 5 -3 18 -15 29 -12 11 -21 24 -21 29 0 12 -40 13 -56 2z"/>
<path d="M706 3723 c10 -32 27 -63 34 -63 4 0 -1 18 -12 40 -21 42 -31 53 -22
23z"/>
<path d="M842 3516 c2 -11 19 -28 38 -39 l35 -19 -25 22 c-14 12 -31 29 -38
38 -13 16 -14 15 -10 -2z"/>
<path d="M925 3430 c10 -11 20 -20 23 -20 3 0 -3 9 -13 20 -10 11 -20 20 -23
20 -3 0 3 -9 13 -20z"/>
<path d="M1078 3363 c7 -3 16 -2 19 1 4 3 -2 6 -13 5 -11 0 -14 -3 -6 -6z"/>
<path d="M1210 3349 c19 -6 64 -14 100 -19 91 -12 119 -20 131 -39 8 -12 9
-12 6 -1 -7 29 -61 44 -237 65 l-35 4 35 -10z"/>
<path d="M1478 3263 c6 -2 18 -2 25 0 6 3 1 5 -13 5 -14 0 -19 -2 -12 -5z"/>
<path d="M1575 3230 c28 -16 56 -30 64 -30 7 0 -13 14 -44 30 -73 38 -85 38
-20 0z"/>
<path d="M1704 3146 c11 -9 24 -16 30 -16 12 0 7 5 -24 19 -24 11 -24 11 -6
-3z"/>
<path d="M1810 3106 c0 -2 7 -7 16 -10 8 -3 12 -2 9 4 -6 10 -25 14 -25 6z"/>
<path d="M3713 3057 c-31 -25 -94 -54 -133 -60 -21 -4 -20 -4 6 -6 39 -1 99
23 138 56 26 22 38 25 83 21 40 -4 57 -10 72 -29 22 -27 27 -73 11 -115 -8
-19 -8 -43 0 -76 12 -59 5 -94 -21 -101 -15 -4 -19 -14 -19 -45 0 -22 -3 -49
-6 -59 -5 -15 -4 -15 5 -3 6 8 11 30 11 49 0 23 8 41 26 58 25 23 26 29 19 76
-8 58 -8 59 1 143 6 59 5 61 -26 87 -43 36 -124 38 -167 4z"/>
<path d="M1877 3039 c7 -7 15 -10 18 -7 3 3 -2 9 -12 12 -14 6 -15 5 -6 -5z"/>
<path d="M1991 2990 c14 -31 19 -36 19 -24 0 6 -7 19 -16 30 -14 18 -14 18 -3
-6z"/>
<path d="M3518 2983 c7 -3 16 -2 19 1 4 3 -2 6 -13 5 -11 0 -14 -3 -6 -6z"/>
<path d="M3466 2973 c-7 -7 -32 -10 -234 -32 -95 -10 -125 -23 -36 -16 208 17
252 23 279 38 17 9 23 16 14 17 -9 0 -19 -3 -23 -7z"/>
<path d="M2014 2948 c-4 -6 -3 -8 3 -5 5 3 25 -4 43 -16 19 -12 45 -30 59 -39
23 -14 58 -16 286 -15 l260 1 -261 6 c-259 5 -261 5 -300 31 -67 44 -82 50
-90 37z"/>
<path d="M3741 2925 c-24 -7 -53 -22 -65 -33 -11 -11 -41 -30 -64 -43 -24 -13
-58 -32 -75 -41 -18 -10 -39 -26 -47 -36 -8 -10 -35 -31 -60 -46 -25 -15 -65
-42 -90 -61 -25 -19 -61 -42 -80 -50 -19 -9 -44 -24 -55 -34 -37 -33 -150 -88
-195 -95 -24 -4 -65 -16 -90 -27 -25 -11 -68 -24 -96 -29 -58 -10 -141 -56
-150 -83 -3 -10 -4 -20 -2 -22 2 -2 30 3 63 12 147 37 212 43 226 22 14 -24
-21 -52 -58 -46 -19 3 -39 0 -50 -8 -10 -8 -37 -15 -60 -15 -23 0 -54 -5 -68
-10 -23 -9 -25 -13 -14 -26 9 -11 21 -13 43 -8 89 22 176 -14 115 -47 -13 -6
-24 -7 -28 -2 -15 24 -45 23 -82 -2 -21 -14 -45 -25 -53 -25 -29 0 -26 -19 5
-36 22 -11 44 -14 70 -10 31 5 43 2 66 -18 24 -21 26 -27 18 -52 -13 -37 -63
-47 -72 -15 -7 26 -28 32 -93 27 -61 -5 -78 -22 -62 -64 6 -15 13 -40 17 -57
3 -16 19 -43 35 -60 29 -30 29 -31 30 -155 0 -69 -1 -136 -2 -150 -4 -36 22
-32 47 7 11 18 28 35 38 38 9 4 24 19 31 33 8 15 37 42 65 60 28 18 57 43 65
54 8 11 30 30 49 42 33 20 137 140 137 158 0 4 25 37 55 73 30 35 55 68 55 72
1 22 206 213 230 213 5 0 17 15 26 33 29 56 94 131 139 159 46 29 85 72 85 95
0 8 29 69 65 135 36 67 65 129 65 139 0 19 -41 49 -67 48 -10 0 -38 -6 -62
-14z"/>
<path d="M2983 2913 c26 -2 68 -2 95 0 26 2 4 3 -48 3 -52 0 -74 -1 -47 -3z"/>
<path d="M2900 2900 c-8 -5 -10 -10 -5 -10 6 0 17 5 25 10 8 5 11 10 5 10 -5
0 -17 -5 -25 -10z"/>
<path d="M2698 2873 c7 -3 16 -2 19 1 4 3 -2 6 -13 5 -11 0 -14 -3 -6 -6z"/>
<path d="M104 2766 c-18 -8 -35 -19 -38 -25 -4 -6 -12 -9 -17 -6 -5 4 -18 3
-29 0 -20 -6 -20 -14 -18 -713 l3 -707 28 -9 c18 -7 60 -6 130 3 56 7 134 16
174 20 40 4 79 13 87 20 8 7 46 27 83 45 43 21 91 56 131 95 35 34 67 59 72
56 12 -7 68 42 85 74 7 15 16 79 21 146 4 74 12 128 21 141 7 12 16 46 20 75
3 30 12 66 19 81 10 19 14 68 14 162 l0 134 -40 76 c-22 41 -40 82 -40 89 0 8
-15 31 -32 52 -18 20 -53 61 -78 90 -25 29 -50 54 -57 54 -7 1 -21 10 -31 21
-33 36 -153 55 -179 29 -15 -15 -75 -15 -153 -1 -84 15 -137 15 -176 -2z m421
-416 c-3 -5 0 -10 7 -11 11 0 11 -2 0 -6 -10 -4 -9 -9 5 -20 13 -10 14 -13 3
-10 -8 2 -21 -1 -27 -9 -12 -12 -5 -13 50 -5 4 0 3 11 -3 24 -11 22 -11 22 5
2 9 -11 21 -19 27 -17 7 2 6 -3 -1 -12 -7 -9 -16 -14 -20 -12 -4 3 -8 -5 -8
-17 -2 -17 0 -19 7 -7 6 9 10 10 10 3 0 -6 -4 -14 -8 -17 -5 -3 -10 -33 -11
-68 -1 -34 0 -60 3 -57 3 2 6 28 7 56 2 30 7 51 13 50 6 -1 10 8 9 21 -2 12 2
22 8 22 5 0 8 -4 5 -9 -3 -4 1 -17 9 -27 8 -11 14 -39 13 -64 l-1 -45 -6 47
c-7 51 -15 66 -26 49 -3 -6 -1 -11 5 -11 7 0 11 -16 9 -43 -2 -24 1 -48 5 -55
4 -7 2 -12 -4 -12 -6 0 -9 -4 -5 -9 3 -6 -3 -9 -14 -8 -11 0 -17 6 -14 14 3 7
8 11 12 8 4 -2 8 15 8 38 l0 42 -10 -37 c-6 -21 -14 -38 -18 -38 -4 0 -6 -8
-4 -18 5 -28 -10 -44 -39 -44 -34 0 -40 -11 -41 -78 -1 -30 0 -47 2 -37 3 10
10 14 16 11 8 -5 8 -2 0 7 -7 7 -13 18 -13 23 0 6 4 4 10 -4 5 -8 12 -11 17
-7 4 5 3 11 -3 15 -11 7 -27 42 -19 42 3 0 12 -11 21 -25 15 -23 15 -27 0 -50
-9 -14 -14 -30 -11 -35 3 -6 -2 -7 -12 -4 -15 5 -16 4 -3 -5 8 -6 26 -11 40
-11 30 0 52 -43 39 -77 -10 -28 -7 -72 6 -73 6 0 12 5 14 11 2 7 -2 9 -10 5
-8 -4 -6 -1 4 7 9 8 17 18 17 22 0 4 -7 2 -15 -5 -10 -9 -15 -9 -15 -1 0 6 4
11 9 11 5 0 7 10 3 23 -5 22 -5 22 16 3 17 -14 19 -23 11 -37 -5 -11 -7 -19
-3 -19 4 0 -1 -8 -10 -19 -12 -13 -28 -18 -59 -16 -49 3 -59 -7 -50 -54 4 -26
3 -32 -7 -26 -9 6 -11 4 -5 -5 6 -10 4 -11 -11 -6 -28 12 -106 18 -100 8 3 -5
19 -9 37 -10 41 -1 51 -12 11 -12 -25 0 -30 -3 -25 -17 4 -11 3 -14 -5 -9 -7
4 -12 14 -12 22 0 8 -7 14 -15 14 -8 0 -15 4 -15 8 0 4 -17 8 -37 8 -21 1 -30
-1 -20 -3 9 -3 17 -8 17 -13 0 -5 8 -7 18 -4 14 5 15 4 2 -5 -12 -9 -11 -11 8
-11 12 0 22 -4 22 -9 0 -11 -41 -1 -56 13 -6 6 -21 18 -33 26 -11 8 -21 24
-21 35 0 16 -2 17 -10 5 -6 -9 -10 -10 -10 -3 0 6 4 14 9 18 16 9 9 43 -8 37
-10 -4 -11 -7 -3 -10 7 -2 12 -8 12 -14 0 -6 -6 -6 -15 2 -11 9 -12 17 -4 31
5 11 13 18 17 15 4 -2 8 15 9 37 2 29 0 37 -7 27 -5 -8 -6 -18 -4 -22 3 -4 1
-8 -5 -8 -5 0 -16 -3 -24 -6 -11 -4 -14 0 -12 13 2 10 4 34 4 52 1 23 4 32 11
25 6 -6 6 -21 0 -43 -7 -24 -6 -31 3 -28 7 2 14 14 15 28 2 13 7 29 11 34 4 6
7 42 5 80 -2 75 11 129 29 118 6 -4 21 -8 32 -9 18 -2 21 3 21 33 0 27 -2 31
-11 20 -8 -12 -12 -12 -23 -1 -18 19 -15 29 5 13 15 -12 16 -12 10 3 -8 21 9
34 27 19 7 -6 26 -9 43 -8 25 2 30 6 31 27 0 35 -20 61 -38 49 -8 -5 -10 -9
-5 -9 6 0 11 -12 10 -27 0 -20 -6 -28 -20 -30 l-20 -3 20 9 c19 9 17 12 -14
15 -8 0 -16 6 -17 11 -5 14 57 56 70 47 21 -13 41 -11 59 6 16 14 19 14 27 2
6 -10 7 -3 4 21 -4 22 -2 39 5 43 6 4 11 12 11 17 0 6 -4 7 -10 4 -20 -13 -9
7 18 30 30 27 36 30 27 15z m-63 -86 c-6 -33 -62 -61 -75 -38 -7 13 -11 13
-25 2 -15 -12 -16 -11 -3 5 9 12 17 14 25 8 24 -20 62 1 57 32 0 4 4 7 10 7 5
0 7 5 3 12 -4 6 -3 8 3 5 6 -4 8 -18 5 -33z m-37 -4 c-3 -5 -12 -10 -18 -10
-7 0 -6 4 3 10 19 12 23 12 15 0z m-148 -202 c-3 -8 -6 -5 -6 6 -1 11 2 17 5
13 3 -3 4 -12 1 -19z m255 -37 c8 11 9 10 4 -3 -3 -10 -1 -18 5 -18 6 0 7 -5
3 -12 -8 -12 -35 17 -33 36 0 6 3 5 6 -3 5 -11 7 -11 15 0z m38 5 c0 -3 -4 -8
-10 -11 -5 -3 -10 -1 -10 4 0 6 5 11 10 11 6 0 10 -2 10 -4z m-340 -80 c0 -26
-6 -18 -14 19 -5 22 -4 26 4 15 5 -8 10 -24 10 -34z m-33 -8 c-3 -7 -5 -2 -5
12 0 14 2 19 5 13 2 -7 2 -19 0 -25z m20 -50 c-3 -7 -5 -2 -5 12 0 14 2 19 5
13 2 -7 2 -19 0 -25z m393 12 c8 -5 11 -10 5 -10 -5 0 -17 5 -25 10 -8 5 -10
10 -5 10 6 0 17 -5 25 -10z m-7 -34 c7 2 13 -6 13 -20 l2 -25 -25 24 c-17 15
-23 27 -17 36 7 11 9 11 12 -3 2 -9 9 -15 15 -12z m-383 -106 c0 -5 -4 -10
-10 -10 -5 0 -10 5 -10 10 0 6 5 10 10 10 6 0 10 -4 10 -10z m295 -107 c-7
-17 -8 -17 -15 2 -5 11 -9 27 -9 35 -1 12 2 11 15 -2 11 -11 14 -23 9 -35z
m55 37 c-1 -3 -12 -18 -25 -35 -21 -25 -23 -26 -18 -7 3 12 9 22 14 22 5 0 9
4 9 10 0 5 -7 7 -15 4 -8 -4 -15 -1 -15 5 0 6 11 10 25 9 14 -1 25 -5 25 -8z
m-54 -72 c5 -8 2 -9 -9 -5 -10 3 -17 3 -17 -2 0 -12 -79 -31 -86 -20 -3 5 5 9
18 9 13 0 34 7 48 14 32 18 37 18 46 4z"/>
<path d="M503 2325 c-3 -9 -3 -18 -1 -21 3 -3 8 4 11 16 6 23 -1 27 -10 5z"/>
<path d="M330 2175 c-8 -9 -8 -15 -2 -15 12 0 26 19 19 26 -2 2 -10 -2 -17
-11z"/>
<path d="M3804 2588 c-28 -30 -78 -108 -70 -108 4 0 23 25 95 122 21 29 8 21
-25 -14z"/>
<path d="M3690 2445 c-13 -14 -22 -27 -19 -29 2 -2 14 10 27 25 29 36 24 38
-8 4z"/>
<path d="M3575 2330 c-31 -17 -54 -37 -60 -54 -5 -15 -45 -63 -89 -109 -96
-98 -126 -136 -126 -156 0 -9 12 4 27 29 15 25 30 46 35 48 24 10 152 153 158
177 3 11 27 31 53 45 26 14 49 31 52 38 2 6 3 12 2 11 -1 -1 -24 -13 -52 -29z"/>
<path d="M1615 2084 c-148 -47 -158 -53 -289 -167 -32 -29 -64 -54 -71 -57
-29 -12 -105 -96 -105 -117 0 -15 -29 -52 -80 -105 -44 -46 -83 -94 -87 -107
-3 -13 1 -45 10 -70 10 -29 17 -99 21 -191 5 -153 21 -223 57 -256 10 -9 19
-23 19 -30 0 -17 138 -152 175 -172 17 -8 46 -28 65 -43 21 -17 53 -31 80 -35
25 -3 69 -15 99 -25 58 -21 127 -18 167 7 11 8 47 19 80 25 32 5 71 18 85 28
14 11 48 29 76 41 29 12 59 30 69 41 9 10 22 19 28 19 16 1 137 79 177 115 41
36 93 116 107 165 6 19 13 73 16 120 7 93 19 149 43 196 14 27 15 43 5 110
-15 110 -48 224 -72 249 -12 12 -25 38 -31 57 -11 43 -119 152 -181 183 -38
19 -65 23 -228 28 -153 5 -194 4 -235 -9z m6 -242 c-7 -2 -18 1 -23 6 -8 8 -4
9 13 5 13 -4 18 -8 10 -11z m-48 -2 c7 0 7 -4 -1 -12 -10 -10 -15 -10 -22 1
-7 12 -11 11 -25 -3 -10 -9 -24 -15 -31 -12 -7 3 -16 1 -19 -4 -7 -11 95 -2
111 10 13 11 15 -4 16 -97 1 -29 5 -50 10 -47 4 3 5 10 2 16 -4 7 -2 8 5 4 8
-5 2 -19 -20 -47 -48 -60 -79 -71 -79 -27 0 14 -8 18 -40 18 l-41 0 2 -49 c2
-33 6 -48 13 -43 6 3 20 7 31 9 11 1 15 -1 8 -3 -7 -3 -10 -13 -7 -22 5 -16 4
-16 -8 -1 -11 13 -16 14 -25 3 -14 -14 -13 -74 1 -74 4 0 5 11 2 24 -3 14 -2
28 4 31 5 3 8 0 5 -7 -6 -16 3 -29 35 -51 30 -21 41 -22 34 -3 -3 8 -1 17 5
21 7 3 8 0 5 -9 -3 -9 -1 -16 5 -16 6 0 11 7 11 15 0 9 7 18 15 21 8 4 13 9
11 13 -3 4 4 7 14 8 23 2 46 -22 30 -32 -5 -3 -10 1 -10 9 0 9 -4 16 -10 16
-5 0 -9 -6 -7 -12 1 -7 -6 -12 -15 -12 -10 1 -19 -8 -22 -22 -4 -13 -13 -24
-21 -24 -8 0 -15 -5 -15 -12 0 -6 -6 -3 -14 7 -8 11 -19 16 -30 12 -9 -4 -16
-2 -16 3 0 6 5 10 12 10 6 0 9 3 5 6 -3 3 -15 3 -27 -1 -16 -5 -18 -10 -10
-20 8 -10 7 -14 -2 -18 -12 -5 5 -8 57 -12 15 -1 19 -7 18 -24 -2 -15 1 -20 9
-15 8 5 9 2 3 -12 -11 -27 -15 -124 -4 -124 5 0 6 14 3 30 -8 35 2 40 17 8 9
-23 9 -22 5 2 -2 14 -6 32 -8 40 -3 8 -3 12 -1 8 11 -19 25 -6 19 18 -4 14 -2
32 4 40 12 14 6 34 -10 34 -5 0 -6 -8 -3 -17 6 -15 5 -16 -9 -3 -19 17 -7 36
17 27 20 -8 32 -40 17 -45 -22 -7 -12 -23 11 -17 21 6 21 5 3 -9 -11 -9 -20
-33 -24 -63 -2 -26 -11 -52 -18 -56 -8 -4 -14 -13 -14 -18 0 -6 6 -7 13 -3 8
5 8 2 -2 -9 -7 -9 -20 -17 -27 -17 -8 0 -23 -9 -35 -21 -11 -11 -27 -18 -35
-15 -10 4 -14 0 -12 -12 2 -13 -3 -16 -24 -14 -14 1 -29 -2 -33 -8 -3 -5 -11
-10 -16 -10 -6 0 -7 5 -4 10 3 6 1 10 -4 10 -6 0 -11 -3 -11 -7 0 -5 -12 -9
-27 -10 -15 0 -21 2 -14 7 8 4 2 9 -18 13 -22 5 -29 11 -25 22 3 8 10 12 15 9
5 -3 7 -10 4 -15 -4 -5 0 -9 7 -9 7 0 24 -3 38 -6 18 -4 13 2 -18 21 -23 14
-40 30 -37 35 3 5 1 11 -4 14 -5 4 -12 2 -15 -3 -4 -5 -2 -12 4 -16 12 -7 4
-25 -12 -25 -5 0 -8 6 -5 14 3 8 -2 16 -15 19 -11 3 -17 10 -13 17 5 8 10 8
20 0 9 -8 14 -6 19 5 3 9 10 14 14 11 5 -3 9 1 9 7 0 8 -14 13 -35 14 -19 0
-29 -3 -22 -7 8 -5 7 -9 -5 -13 -9 -4 -13 -3 -10 3 3 6 3 10 -2 10 -4 0 -8 10
-8 23 -1 12 -5 33 -9 46 -6 16 -5 21 3 17 7 -5 11 3 10 21 0 25 -1 26 -10 8
-7 -15 -8 -13 -3 10 4 17 8 40 9 51 4 29 23 64 36 64 6 0 1 -12 -10 -26 -11
-15 -18 -31 -14 -37 10 -16 44 36 39 62 -2 14 4 31 15 42 10 10 14 21 9 24 -6
4 -10 12 -10 18 0 7 4 6 10 -3 10 -16 13 -10 13 33 0 10 2 15 5 12 7 -6 32 15
32 27 0 6 -8 4 -17 -3 -17 -13 -17 -13 0 7 9 11 14 24 10 29 -5 4 -2 5 6 0 8
-4 17 -2 22 6 6 10 9 11 9 2 0 -22 28 -14 49 13 25 32 30 74 6 54 -8 -7 -15
-20 -15 -30 0 -22 -9 -30 -25 -24 -10 4 -9 10 6 25 11 11 17 25 13 31 -4 7 -3
8 5 4 6 -4 14 0 17 8 3 9 13 16 21 16 7 0 13 6 12 13 -3 22 1 40 7 34 3 -3 15
3 26 13 11 10 26 16 33 14 7 -3 16 0 20 6 4 6 14 9 22 6 8 -3 20 -6 26 -6z
m56 -32 c0 -13 2 -42 4 -65 2 -24 0 -40 -5 -37 -5 3 -6 14 -3 24 3 11 -1 33
-10 51 -11 20 -12 28 -4 23 9 -5 11 -2 6 9 -3 10 -2 17 3 17 5 0 10 -10 9 -22z
m-37 -370 c-3 -14 -2 -19 6 -14 7 4 12 14 12 23 0 14 3 14 20 -2 18 -16 19
-20 6 -33 -13 -13 -18 -13 -40 1 -16 11 -23 23 -20 32 9 23 23 18 16 -7z m-82
-18 c0 -5 -7 -10 -16 -10 -8 0 -12 5 -9 10 3 6 10 10 16 10 5 0 9 -4 9 -10z
m-250 -194 c0 -3 -4 -8 -10 -11 -5 -3 -10 -1 -10 4 0 6 5 11 10 11 6 0 10 -2
10 -4z"/>
<path d="M1432 1710 c-1 -14 -9 -36 -18 -48 -14 -20 -14 -22 1 -22 20 0 27 20
22 62 -3 24 -4 27 -5 8z"/>
<path d="M1345 1640 c6 -10 4 -12 -8 -7 -10 4 -14 2 -11 -6 2 -7 -5 -23 -16
-35 -23 -24 -13 -35 25 -28 16 2 20 11 21 40 0 20 -4 40 -9 43 -6 4 -7 1 -2
-7z m3 -46 c0 -18 -3 -22 -9 -13 -6 10 -9 11 -9 2 0 -7 -5 -13 -10 -13 -6 0
-3 11 6 25 20 31 22 31 22 -1z"/>
<path d="M1533 1619 c1 -15 3 -15 24 -2 29 19 29 21 -1 19 -16 0 -24 -7 -23
-17z"/>
<path d="M1256 1491 c-4 -5 -2 -11 4 -13 6 -2 4 -15 -5 -32 -19 -37 -19 -42 4
-42 16 0 18 8 18 48 -1 45 -9 59 -21 39z"/>
<path d="M1458 1218 c-9 -7 -18 -24 -20 -38 -3 -21 -8 -25 -33 -22 -23 2 -26
0 -15 -8 13 -8 13 -10 -2 -10 -10 0 -18 4 -18 8 0 5 -14 9 -31 9 l-31 0 28
-15 c42 -22 102 -24 100 -3 -1 10 6 15 16 13 9 -1 22 7 28 18 6 12 21 20 35
20 18 0 23 4 19 15 -5 12 -9 13 -20 4 -8 -7 -18 -9 -21 -5 -4 4 -1 11 7 16 12
8 11 10 -6 10 -11 0 -27 -6 -36 -12z m12 -28 c0 -5 -4 -10 -10 -10 -5 0 -10 5
-10 10 0 6 5 10 10 10 6 0 10 -4 10 -10z"/>
<path d="M1616 1431 c-4 -7 -5 -15 -2 -18 9 -9 19 4 14 18 -4 11 -6 11 -12 0z"/>
<path d="M3250 1949 l-45 -41 42 32 c37 27 61 51 51 50 -2 0 -23 -19 -48 -41z"/>
<path d="M3149 1853 c-13 -16 -12 -17 4 -4 16 13 21 21 13 21 -2 0 -10 -8 -17
-17z"/>
<path d="M3085 1788 c-27 -22 -57 -50 -65 -62 -13 -20 -83 -95 -155 -166 -14
-14 -25 -33 -25 -41 0 -8 -12 -31 -26 -50 -44 -58 -95 -141 -91 -146 3 -2 18
18 35 44 17 26 45 68 61 92 17 24 31 50 31 57 0 11 77 96 225 250 17 17 39 35
50 42 11 6 18 13 15 15 -3 3 -27 -13 -55 -35z"/>
<path d="M2668 1283 c-20 -21 -46 -54 -59 -75 -13 -20 -39 -56 -57 -80 l-34
-43 37 40 c20 22 50 60 67 85 17 25 36 50 42 55 19 17 49 55 45 55 -3 0 -21
-17 -41 -37z"/>
<path d="M2494 1058 l-19 -23 23 19 c21 18 27 26 19 26 -2 0 -12 -10 -23 -22z"/>
<path d="M2400 950 c-6 -11 -8 -20 -6 -20 3 0 10 9 16 20 6 11 8 20 6 20 -3 0
-10 -9 -16 -20z"/>
<path d="M2248 783 c7 -3 16 -2 19 1 4 3 -2 6 -13 5 -11 0 -14 -3 -6 -6z"/>
<path d="M2209 763 c-13 -16 -12 -17 4 -4 16 13 21 21 13 21 -2 0 -10 -8 -17
-17z"/>
<path d="M2105 658 l-40 -43 43 40 c39 36 47 45 39 45 -2 0 -21 -19 -42 -42z"/>
<path d="M1976 550 c-22 -17 -35 -30 -30 -30 9 1 83 59 74 59 -3 0 -23 -13
-44 -29z"/>
<path d="M482 530 c7 -11 16 -20 21 -20 4 0 3 9 -3 20 -6 11 -15 20 -20 20 -6
0 -5 -9 2 -20z"/>
<path d="M408 523 c-27 -33 -48 -72 -48 -90 0 -10 10 2 21 27 11 24 27 53 36
62 9 10 14 18 11 18 -3 0 -12 -8 -20 -17z"/>
<path d="M580 499 c8 -8 21 -21 29 -29 12 -12 11 -10 0 9 -9 14 -22 27 -30 29
-11 3 -11 2 1 -9z"/>
<path d="M1865 500 c-13 -5 -14 -9 -5 -9 8 0 24 4 35 9 13 5 14 9 5 9 -8 0
-24 -4 -35 -9z"/>
<path d="M1755 440 c-26 -27 -34 -30 -109 -33 l-81 -3 81 -2 c80 -2 80 -2 114
33 19 19 32 35 29 35 -3 0 -18 -13 -34 -30z"/>
<path d="M888 423 c7 -3 16 -2 19 1 4 3 -2 6 -13 5 -11 0 -14 -3 -6 -6z"/>
<path d="M932 409 c7 -5 36 -8 63 -8 60 1 50 6 -23 12 -32 2 -48 1 -40 -4z"/>
<path d="M1058 393 c7 -3 16 -2 19 1 4 3 -2 6 -13 5 -11 0 -14 -3 -6 -6z"/>
<path d="M1524 384 c-18 -14 -18 -14 6 -3 31 14 36 19 24 19 -6 0 -19 -7 -30
-16z"/>
<path d="M368 355 c-2 -19 0 -35 4 -35 4 0 8 16 8 35 0 19 -2 35 -4 35 -2 0
-6 -16 -8 -35z"/>
<path d="M1138 373 c7 -3 16 -2 19 1 4 3 -2 6 -13 5 -11 0 -14 -3 -6 -6z"/>
<path d="M1258 363 c45 -2 119 -2 165 0 45 1 8 3 -83 3 -91 0 -128 -2 -82 -3z"/>
<path d="M60 155 c-18 -19 -32 -36 -29 -37 2 -2 20 14 40 34 21 21 34 38 30
38 -4 0 -22 -16 -41 -35z"/>
  </g>
  <g transform="translate(0,500) scale(0.1,-0.1)" fill="#000000" stroke="none">
<path d="M131 4927 c-14 -6 -39 -32 -56 -57 -18 -25 -41 -46 -53 -48 -21 -3
-22 -9 -22 -88 0 -48 4 -84 10 -84 5 0 31 34 57 76 27 42 54 82 61 90 20 21
60 17 67 -6 3 -11 11 -20 16 -20 5 0 9 -6 9 -14 0 -8 5 -27 12 -43 6 -16 10
-73 9 -133 -3 -184 12 -341 37 -388 12 -24 22 -56 22 -72 0 -16 5 -32 10 -35
6 -3 10 -22 10 -41 0 -33 4 -54 31 -177 6 -26 12 -91 14 -145 1 -53 10 -125
19 -159 19 -71 13 -109 -16 -119 -11 -3 -57 -3 -102 1 -64 5 -85 3 -101 -9
-20 -14 -20 -15 5 -41 24 -25 28 -26 114 -23 l90 3 10 -33 c14 -49 -1 -57 -98
-55 -70 2 -91 -1 -133 -21 -27 -13 -55 -31 -62 -40 -7 -9 -22 -16 -33 -16 -11
0 -28 -5 -39 -10 -18 -10 -19 -24 -19 -250 l0 -240 34 0 c18 0 39 6 45 13 6 8
29 20 50 27 34 11 55 10 144 -5 100 -17 107 -17 160 0 66 21 109 15 161 -20
20 -14 41 -25 45 -25 9 0 93 -91 127 -137 11 -15 44 -75 72 -133 l52 -106 0
-117 c0 -82 -5 -129 -15 -154 -8 -19 -15 -52 -15 -72 0 -20 -10 -56 -21 -81
-16 -34 -22 -74 -26 -162 -6 -112 -7 -119 -36 -154 -17 -20 -44 -42 -61 -50
-17 -7 -58 -38 -91 -69 -35 -33 -96 -74 -145 -100 -74 -38 -101 -45 -210 -61
-184 -26 -207 -27 -240 -16 l-30 11 0 -617 0 -617 49 53 c26 28 54 52 62 52
20 0 92 51 132 93 30 32 40 37 80 37 54 0 63 15 48 80 -8 35 -6 48 12 78 38
68 86 91 107 52 8 -14 21 -20 47 -20 25 0 45 -9 70 -30 18 -16 43 -30 53 -30
11 0 20 -4 20 -10 0 -6 41 -10 104 -10 66 0 119 -5 146 -15 23 -8 59 -15 79
-15 20 -1 63 -7 96 -15 33 -8 131 -18 217 -21 148 -6 161 -5 198 15 31 16 59
21 119 21 66 0 81 3 96 20 28 31 73 56 145 81 83 28 100 40 247 176 67 62 129
113 138 113 8 0 15 5 15 10 0 6 16 20 35 31 21 13 47 43 69 82 19 34 55 85 81
112 44 47 101 118 153 189 12 17 44 54 70 81 57 59 152 195 152 217 0 9 38 53
85 99 47 46 93 96 101 112 8 15 34 41 57 58 23 16 53 47 67 67 14 20 52 58 84
84 35 28 66 63 77 87 9 22 44 66 76 99 106 108 131 137 134 156 2 11 24 30 48
43 24 13 52 35 61 51 10 15 39 47 65 72 25 25 53 58 61 73 8 16 30 45 48 65
35 39 56 88 56 129 0 14 10 33 22 43 19 15 22 26 19 62 -5 64 -4 107 3 163 7
49 6 51 -31 78 -32 25 -45 28 -86 24 -29 -2 -56 -12 -70 -24 -35 -32 -60 -42
-149 -59 -45 -9 -91 -21 -103 -27 -11 -6 -54 -15 -95 -19 -41 -4 -111 -12
-155 -18 -44 -6 -125 -13 -180 -16 -59 -3 -116 -12 -139 -22 -34 -14 -86 -16
-390 -17 -317 0 -354 2 -383 18 -55 29 -102 64 -132 96 -15 16 -41 33 -57 36
-46 9 -78 29 -89 53 -7 15 -30 29 -74 43 -47 16 -67 29 -80 50 -9 16 -25 29
-35 29 -11 0 -42 13 -70 29 -28 15 -68 31 -89 35 -22 4 -43 16 -52 30 -11 17
-31 26 -79 34 -35 7 -77 12 -94 12 -17 0 -33 4 -36 9 -3 5 -43 11 -88 14 -105
6 -210 45 -235 87 -9 16 -26 33 -37 38 -12 5 -34 35 -50 66 -16 31 -47 75 -68
97 -21 22 -38 48 -38 58 0 10 -9 26 -20 36 -11 10 -20 27 -20 37 0 11 -9 31
-20 45 -11 14 -20 35 -20 45 0 11 -9 31 -20 45 -11 14 -20 32 -20 40 0 8 -15
42 -34 76 -23 41 -37 82 -41 122 -4 33 -10 64 -13 69 -3 6 -6 31 -7 57 -1 26
-9 59 -18 73 -10 14 -17 34 -17 44 0 11 -6 25 -13 31 -8 6 -19 35 -26 66 -7
30 -17 57 -22 60 -5 4 -9 21 -9 38 0 18 -12 55 -27 82 -14 28 -37 72 -50 99
-33 65 -91 144 -113 156 -25 13 -50 12 -79 -3z m3710 -2004 c29 -17 37 -41 20
-58 -5 -6 -30 -52 -56 -103 -26 -51 -51 -95 -56 -98 -5 -2 -13 -23 -19 -44 -8
-28 -24 -50 -58 -77 -69 -56 -132 -124 -148 -159 -7 -18 -36 -48 -63 -68 -69
-49 -201 -175 -201 -192 0 -7 -16 -30 -36 -51 -55 -59 -60 -66 -79 -103 -18
-35 -58 -83 -105 -127 -73 -67 -105 -95 -134 -115 -40 -28 -130 -118 -145
-146 -6 -12 -18 -22 -25 -22 -10 0 -12 33 -12 149 l1 148 -31 29 c-19 18 -34
44 -38 69 -4 22 -12 45 -18 52 -13 16 9 55 30 52 9 -2 32 1 50 5 28 7 37 3 67
-23 48 -42 85 -28 85 31 0 37 -39 62 -83 55 -21 -3 -48 1 -73 13 -34 15 -36
19 -19 25 11 4 36 15 56 26 40 21 95 26 84 8 -5 -7 3 -9 21 -7 23 2 30 9 32
29 3 25 0 27 -51 33 -29 4 -65 3 -79 -3 -20 -7 -29 -6 -37 3 -16 19 -5 25 61
32 32 4 61 11 64 15 3 5 27 9 53 9 32 0 53 5 62 16 20 25 -1 49 -42 48 -49 -1
-119 -13 -138 -23 -9 -5 -35 -12 -58 -16 -35 -5 -43 -4 -43 8 0 24 87 75 139
83 25 3 72 17 103 30 32 13 70 24 85 24 37 1 157 60 219 109 15 12 32 21 39
21 7 0 31 15 54 33 76 60 96 74 128 91 18 9 37 25 43 35 5 11 20 23 32 27 13
4 35 17 49 29 15 12 42 27 60 35 19 7 44 22 56 33 17 15 74 37 121 46 2 1 17
-7 33 -16z m-1916 -839 c85 -5 122 -12 160 -29 59 -27 161 -129 171 -171 4
-16 20 -46 36 -68 15 -21 28 -49 28 -62 0 -13 9 -48 20 -78 12 -30 20 -58 19
-62 -2 -5 1 -30 5 -56 7 -38 4 -55 -11 -85 -24 -46 -30 -76 -43 -213 -7 -78
-17 -118 -36 -158 -30 -62 -103 -141 -154 -167 -19 -10 -46 -26 -60 -35 -14
-9 -45 -30 -70 -47 -25 -16 -61 -35 -80 -42 -19 -6 -44 -20 -55 -31 -13 -12
-48 -25 -86 -31 -35 -6 -78 -20 -95 -30 -38 -23 -117 -25 -171 -5 -21 8 -59
17 -86 21 -31 4 -62 17 -91 40 -24 18 -53 38 -64 44 -33 18 -162 143 -162 157
0 7 -13 29 -30 47 -38 43 -47 92 -54 279 -4 113 -9 154 -22 173 -25 38 -12 66
76 157 50 52 80 91 80 105 0 41 278 280 358 308 109 39 187 55 247 50 33 -3
110 -8 170 -11z"/>
<path d="M1550 1861 c-51 -10 -86 -35 -167 -120 -50 -52 -84 -100 -114 -160
-24 -47 -53 -99 -64 -116 -17 -25 -20 -46 -20 -125 0 -52 3 -106 7 -120 4 -14
29 -47 54 -73 47 -47 48 -47 114 -47 60 0 72 3 105 30 21 17 41 30 46 30 4 0
22 15 38 33 22 23 31 42 31 67 0 23 13 57 39 99 33 53 38 69 34 100 -11 67
-43 79 -99 36 -37 -28 -56 -31 -73 -11 -10 12 -1 27 48 78 33 36 75 84 92 108
29 40 31 47 26 108 -3 35 -9 67 -13 72 -15 14 -48 18 -84 11z"/>
<path d="M500 2345 c-7 -8 -17 -15 -23 -15 -9 0 -31 -17 -108 -86 -13 -11 -35
-35 -49 -53 -14 -18 -32 -41 -41 -50 -8 -9 -24 -36 -34 -61 -10 -25 -28 -55
-39 -68 -18 -20 -22 -40 -24 -127 -6 -166 16 -230 101 -292 34 -25 107 -30
182 -13 44 10 105 69 105 102 0 10 10 29 23 42 39 39 50 71 44 121 -4 25 -12
55 -18 66 -11 21 -11 21 -38 -5 -30 -29 -59 -34 -67 -12 -6 15 29 90 46 101 5
3 10 14 10 23 0 9 12 28 26 43 53 55 38 198 -28 266 -35 37 -50 40 -68 18z"/>
  </g>
</svg>